<mxfile host="app.diagrams.net" agent="Mozilla/5.0 (Macintosh; Intel Mac OS X 10_15_7) AppleWebKit/605.1.15 (KHTML, like Gecko) Version/17.0 Safari/605.1.15" version="26.0.2">
  <diagram name="Page-1" id="RlsRpv23-9_5WFNjJSw9">
    <mxGraphModel dx="2317" dy="1750" grid="1" gridSize="10" guides="1" tooltips="1" connect="1" arrows="1" fold="1" page="1" pageScale="1" pageWidth="827" pageHeight="1169" math="0" shadow="0">
      <root>
        <mxCell id="0" />
        <mxCell id="1" parent="0" />
        <mxCell id="5TMJ9wo4u4vXd0iV7xd8-3" value="" style="rounded=1;whiteSpace=wrap;html=1;" vertex="1" parent="1">
          <mxGeometry x="1010" y="60" width="330" height="210" as="geometry" />
        </mxCell>
        <mxCell id="5TMJ9wo4u4vXd0iV7xd8-4" value="" style="rounded=1;whiteSpace=wrap;html=1;" vertex="1" parent="1">
          <mxGeometry x="1420" y="60" width="330" height="210" as="geometry" />
        </mxCell>
        <mxCell id="5TMJ9wo4u4vXd0iV7xd8-5" value="" style="rounded=0;whiteSpace=wrap;html=1;fillColor=#bac8d3;strokeColor=#23445d;labelBackgroundColor=none;" vertex="1" parent="1">
          <mxGeometry x="40" y="300" width="190" height="660" as="geometry" />
        </mxCell>
        <mxCell id="5TMJ9wo4u4vXd0iV7xd8-8" value="&lt;font face=&quot;Times New Roman&quot; style=&quot;color: rgb(0, 51, 102); font-size: 25px;&quot;&gt;C&lt;/font&gt;&lt;font face=&quot;Times New Roman&quot; style=&quot;color: rgb(0, 51, 102); font-size: 24px;&quot;&gt;ONNAITRE&lt;/font&gt;" style="text;html=1;align=center;verticalAlign=middle;whiteSpace=wrap;rounded=0;" vertex="1" parent="1">
          <mxGeometry x="65" y="310" width="140" height="30" as="geometry" />
        </mxCell>
        <mxCell id="5TMJ9wo4u4vXd0iV7xd8-11" value="" style="shape=link;html=1;rounded=0;" edge="1" parent="1">
          <mxGeometry width="100" relative="1" as="geometry">
            <mxPoint x="62.5" y="500" as="sourcePoint" />
            <mxPoint x="62.5" y="500" as="targetPoint" />
          </mxGeometry>
        </mxCell>
        <mxCell id="5TMJ9wo4u4vXd0iV7xd8-12" value="" style="shape=link;html=1;rounded=0;" edge="1" parent="1">
          <mxGeometry width="100" relative="1" as="geometry">
            <mxPoint x="62.5" y="500" as="sourcePoint" />
            <mxPoint x="62.5" y="500" as="targetPoint" />
          </mxGeometry>
        </mxCell>
        <mxCell id="5TMJ9wo4u4vXd0iV7xd8-17" value="" style="group" vertex="1" connectable="0" parent="1">
          <mxGeometry x="60" y="60" width="160" height="90" as="geometry" />
        </mxCell>
        <mxCell id="5TMJ9wo4u4vXd0iV7xd8-14" value="" style="rounded=1;whiteSpace=wrap;html=1;glass=0;strokeColor=#B3B3B3;" vertex="1" parent="5TMJ9wo4u4vXd0iV7xd8-17">
          <mxGeometry width="160" height="90" as="geometry" />
        </mxCell>
        <mxCell id="5TMJ9wo4u4vXd0iV7xd8-16" value="" style="line;strokeWidth=4;html=1;perimeter=backbonePerimeter;points=[];outlineConnect=0;fillColor=default;gradientColor=none;strokeColor=#B3B3B3;" vertex="1" parent="5TMJ9wo4u4vXd0iV7xd8-17">
          <mxGeometry y="58" width="160" height="10" as="geometry" />
        </mxCell>
        <mxCell id="5TMJ9wo4u4vXd0iV7xd8-18" value="" style="group" vertex="1" connectable="0" parent="1">
          <mxGeometry x="55" y="470" width="160" height="90" as="geometry" />
        </mxCell>
        <mxCell id="5TMJ9wo4u4vXd0iV7xd8-19" value="" style="rounded=1;whiteSpace=wrap;html=1;glass=0;strokeColor=#B3B3B3;" vertex="1" parent="5TMJ9wo4u4vXd0iV7xd8-18">
          <mxGeometry width="160" height="90" as="geometry" />
        </mxCell>
        <mxCell id="5TMJ9wo4u4vXd0iV7xd8-20" value="" style="line;strokeWidth=4;html=1;perimeter=backbonePerimeter;points=[];outlineConnect=0;fillColor=default;gradientColor=none;strokeColor=#B3B3B3;" vertex="1" parent="5TMJ9wo4u4vXd0iV7xd8-18">
          <mxGeometry y="58" width="160" height="10" as="geometry" />
        </mxCell>
        <mxCell id="5TMJ9wo4u4vXd0iV7xd8-21" value="&lt;font face=&quot;Times New Roman&quot; style=&quot;color: rgb(0, 51, 102); font-size: 18px;&quot;&gt;Reconnaissance externe sources ouvertes&lt;/font&gt;" style="text;align=center;verticalAlign=bottom;rounded=0;spacing=0;horizontal=1;fontSize=12;labelPosition=center;verticalLabelPosition=top;spacingTop=0;spacingBottom=0;spacingLeft=0;spacingRight=0;html=1;whiteSpace=wrap;" vertex="1" parent="5TMJ9wo4u4vXd0iV7xd8-18">
          <mxGeometry x="10" y="63" width="140" as="geometry" />
        </mxCell>
        <mxCell id="5TMJ9wo4u4vXd0iV7xd8-211" value="" style="html=1;verticalLabelPosition=bottom;align=center;labelBackgroundColor=#ffffff;verticalAlign=top;strokeWidth=2;strokeColor=#0080F0;shadow=0;dashed=0;shape=mxgraph.ios7.icons.glasses;" vertex="1" parent="5TMJ9wo4u4vXd0iV7xd8-18">
          <mxGeometry x="5" y="72" width="30" height="12" as="geometry" />
        </mxCell>
        <mxCell id="5TMJ9wo4u4vXd0iV7xd8-26" value="" style="shape=link;html=1;rounded=0;" edge="1" parent="1">
          <mxGeometry width="100" relative="1" as="geometry">
            <mxPoint x="257.5" y="90" as="sourcePoint" />
            <mxPoint x="257.5" y="90" as="targetPoint" />
          </mxGeometry>
        </mxCell>
        <mxCell id="5TMJ9wo4u4vXd0iV7xd8-27" value="" style="shape=link;html=1;rounded=0;" edge="1" parent="1">
          <mxGeometry width="100" relative="1" as="geometry">
            <mxPoint x="257.5" y="90" as="sourcePoint" />
            <mxPoint x="257.5" y="90" as="targetPoint" />
          </mxGeometry>
        </mxCell>
        <mxCell id="5TMJ9wo4u4vXd0iV7xd8-28" value="" style="group" vertex="1" connectable="0" parent="1">
          <mxGeometry x="250" y="60" width="160" height="90" as="geometry" />
        </mxCell>
        <mxCell id="5TMJ9wo4u4vXd0iV7xd8-29" value="" style="rounded=1;whiteSpace=wrap;html=1;glass=0;strokeColor=#B3B3B3;" vertex="1" parent="5TMJ9wo4u4vXd0iV7xd8-28">
          <mxGeometry width="160" height="90" as="geometry" />
        </mxCell>
        <mxCell id="5TMJ9wo4u4vXd0iV7xd8-30" value="" style="line;strokeWidth=4;html=1;perimeter=backbonePerimeter;points=[];outlineConnect=0;fillColor=default;gradientColor=none;strokeColor=#B3B3B3;" vertex="1" parent="5TMJ9wo4u4vXd0iV7xd8-28">
          <mxGeometry y="58" width="160" height="10" as="geometry" />
        </mxCell>
        <mxCell id="5TMJ9wo4u4vXd0iV7xd8-31" value="&lt;font face=&quot;Times New Roman&quot; style=&quot;color: rgb(0, 51, 102); font-size: 18px;&quot;&gt;Reconnaissance externe sources ouvertes&lt;/font&gt;" style="text;align=center;verticalAlign=bottom;rounded=0;spacing=0;horizontal=1;fontSize=12;labelPosition=center;verticalLabelPosition=top;spacingTop=0;spacingBottom=0;spacingLeft=0;spacingRight=0;html=1;whiteSpace=wrap;" vertex="1" parent="5TMJ9wo4u4vXd0iV7xd8-28">
          <mxGeometry x="10" y="63" width="140" as="geometry" />
        </mxCell>
        <mxCell id="5TMJ9wo4u4vXd0iV7xd8-32" value="" style="ellipse;shape=doubleEllipse;whiteSpace=wrap;html=1;aspect=fixed;fontColor=#003366;" vertex="1" parent="5TMJ9wo4u4vXd0iV7xd8-28">
          <mxGeometry x="11" y="70" width="12" height="12" as="geometry" />
        </mxCell>
        <mxCell id="5TMJ9wo4u4vXd0iV7xd8-33" value="&lt;font face=&quot;Times New Roman&quot; style=&quot;color: rgb(0, 51, 102); font-size: 18px;&quot;&gt;Reconnaissance&lt;/font&gt;" style="text;align=center;verticalAlign=bottom;rounded=0;spacing=0;horizontal=1;fontSize=12;labelPosition=center;verticalLabelPosition=top;spacingTop=0;spacingBottom=0;spacingLeft=0;spacingRight=0;html=1;whiteSpace=wrap;" vertex="1" parent="1">
          <mxGeometry x="268" y="146" width="140" as="geometry" />
        </mxCell>
        <mxCell id="5TMJ9wo4u4vXd0iV7xd8-34" value="" style="shape=link;html=1;rounded=0;" edge="1" parent="1">
          <mxGeometry width="100" relative="1" as="geometry">
            <mxPoint x="62.5" y="890" as="sourcePoint" />
            <mxPoint x="62.5" y="890" as="targetPoint" />
          </mxGeometry>
        </mxCell>
        <mxCell id="5TMJ9wo4u4vXd0iV7xd8-35" value="" style="shape=link;html=1;rounded=0;" edge="1" parent="1">
          <mxGeometry width="100" relative="1" as="geometry">
            <mxPoint x="62.5" y="890" as="sourcePoint" />
            <mxPoint x="62.5" y="890" as="targetPoint" />
          </mxGeometry>
        </mxCell>
        <mxCell id="5TMJ9wo4u4vXd0iV7xd8-36" value="" style="group" vertex="1" connectable="0" parent="1">
          <mxGeometry x="55" y="860" width="160" height="90" as="geometry" />
        </mxCell>
        <mxCell id="5TMJ9wo4u4vXd0iV7xd8-37" value="" style="rounded=1;whiteSpace=wrap;html=1;glass=0;strokeColor=#B3B3B3;" vertex="1" parent="5TMJ9wo4u4vXd0iV7xd8-36">
          <mxGeometry width="160" height="90" as="geometry" />
        </mxCell>
        <mxCell id="5TMJ9wo4u4vXd0iV7xd8-38" value="" style="line;strokeWidth=4;html=1;perimeter=backbonePerimeter;points=[];outlineConnect=0;fillColor=default;gradientColor=none;strokeColor=#B3B3B3;" vertex="1" parent="5TMJ9wo4u4vXd0iV7xd8-36">
          <mxGeometry y="58" width="160" height="10" as="geometry" />
        </mxCell>
        <mxCell id="5TMJ9wo4u4vXd0iV7xd8-39" value="&lt;font face=&quot;Times New Roman&quot; style=&quot;color: rgb(0, 51, 102); font-size: 18px;&quot;&gt;Reconnaissance externe avancÃ©e&lt;/font&gt;" style="text;align=center;verticalAlign=bottom;rounded=0;spacing=0;horizontal=1;fontSize=12;labelPosition=center;verticalLabelPosition=top;spacingTop=0;spacingBottom=0;spacingLeft=0;spacingRight=0;html=1;whiteSpace=wrap;" vertex="1" parent="5TMJ9wo4u4vXd0iV7xd8-36">
          <mxGeometry x="10" y="53" width="140" as="geometry" />
        </mxCell>
        <mxCell id="5TMJ9wo4u4vXd0iV7xd8-40" value="" style="ellipse;shape=doubleEllipse;whiteSpace=wrap;html=1;aspect=fixed;fontColor=#003366;" vertex="1" parent="5TMJ9wo4u4vXd0iV7xd8-36">
          <mxGeometry x="11" y="70" width="12" height="12" as="geometry" />
        </mxCell>
        <mxCell id="5TMJ9wo4u4vXd0iV7xd8-43" value="" style="rounded=0;whiteSpace=wrap;html=1;fillColor=#bac8d3;strokeColor=#23445d;" vertex="1" parent="1">
          <mxGeometry x="300" y="300" width="440" height="660" as="geometry" />
        </mxCell>
        <mxCell id="5TMJ9wo4u4vXd0iV7xd8-44" value="&lt;font face=&quot;Times New Roman&quot; color=&quot;#003366&quot;&gt;&lt;span style=&quot;caret-color: rgb(0, 51, 102); font-size: 25px;&quot;&gt;RENTRER&lt;/span&gt;&lt;/font&gt;" style="text;html=1;align=center;verticalAlign=middle;whiteSpace=wrap;rounded=0;" vertex="1" parent="1">
          <mxGeometry x="450" y="310" width="140" height="30" as="geometry" />
        </mxCell>
        <mxCell id="5TMJ9wo4u4vXd0iV7xd8-45" value="" style="shape=link;html=1;rounded=0;" edge="1" parent="1">
          <mxGeometry width="100" relative="1" as="geometry">
            <mxPoint x="347.5" y="390" as="sourcePoint" />
            <mxPoint x="347.5" y="390" as="targetPoint" />
          </mxGeometry>
        </mxCell>
        <mxCell id="5TMJ9wo4u4vXd0iV7xd8-46" value="" style="shape=link;html=1;rounded=0;" edge="1" parent="1">
          <mxGeometry width="100" relative="1" as="geometry">
            <mxPoint x="347.5" y="390" as="sourcePoint" />
            <mxPoint x="347.5" y="390" as="targetPoint" />
          </mxGeometry>
        </mxCell>
        <mxCell id="5TMJ9wo4u4vXd0iV7xd8-47" value="" style="group" vertex="1" connectable="0" parent="1">
          <mxGeometry x="340" y="360" width="160" height="90" as="geometry" />
        </mxCell>
        <mxCell id="5TMJ9wo4u4vXd0iV7xd8-48" value="" style="rounded=1;whiteSpace=wrap;html=1;glass=0;strokeColor=#B3B3B3;" vertex="1" parent="5TMJ9wo4u4vXd0iV7xd8-47">
          <mxGeometry width="160" height="90" as="geometry" />
        </mxCell>
        <mxCell id="5TMJ9wo4u4vXd0iV7xd8-49" value="" style="line;strokeWidth=4;html=1;perimeter=backbonePerimeter;points=[];outlineConnect=0;fillColor=default;gradientColor=none;strokeColor=#B3B3B3;" vertex="1" parent="5TMJ9wo4u4vXd0iV7xd8-47">
          <mxGeometry y="58" width="160" height="10" as="geometry" />
        </mxCell>
        <mxCell id="5TMJ9wo4u4vXd0iV7xd8-50" value="&lt;font face=&quot;Times New Roman&quot; style=&quot;color: rgb(0, 51, 102); font-size: 18px;&quot;&gt;Intrusion via une porte dÃ©robÃ©e sur Shadow IT&lt;/font&gt;" style="text;align=center;verticalAlign=bottom;rounded=0;spacing=0;horizontal=1;fontSize=12;labelPosition=center;verticalLabelPosition=top;spacingTop=0;spacingBottom=0;spacingLeft=0;spacingRight=0;html=1;whiteSpace=wrap;" vertex="1" parent="5TMJ9wo4u4vXd0iV7xd8-47">
          <mxGeometry x="10" y="63" width="140" as="geometry" />
        </mxCell>
        <mxCell id="5TMJ9wo4u4vXd0iV7xd8-196" value="" style="verticalLabelPosition=bottom;aspect=fixed;html=1;shape=mxgraph.salesforce.financial_services2;" vertex="1" parent="5TMJ9wo4u4vXd0iV7xd8-47">
          <mxGeometry x="9" y="68" width="20" height="20" as="geometry" />
        </mxCell>
        <mxCell id="5TMJ9wo4u4vXd0iV7xd8-53" value="" style="shape=link;html=1;rounded=0;" edge="1" parent="1">
          <mxGeometry width="100" relative="1" as="geometry">
            <mxPoint x="347.5" y="490" as="sourcePoint" />
            <mxPoint x="347.5" y="490" as="targetPoint" />
          </mxGeometry>
        </mxCell>
        <mxCell id="5TMJ9wo4u4vXd0iV7xd8-54" value="" style="shape=link;html=1;rounded=0;" edge="1" parent="1">
          <mxGeometry width="100" relative="1" as="geometry">
            <mxPoint x="347.5" y="490" as="sourcePoint" />
            <mxPoint x="347.5" y="490" as="targetPoint" />
          </mxGeometry>
        </mxCell>
        <mxCell id="5TMJ9wo4u4vXd0iV7xd8-55" value="" style="group" vertex="1" connectable="0" parent="1">
          <mxGeometry x="340" y="460" width="160" height="111" as="geometry" />
        </mxCell>
        <mxCell id="5TMJ9wo4u4vXd0iV7xd8-56" value="" style="rounded=1;whiteSpace=wrap;html=1;glass=0;strokeColor=#B3B3B3;" vertex="1" parent="5TMJ9wo4u4vXd0iV7xd8-55">
          <mxGeometry width="160" height="90" as="geometry" />
        </mxCell>
        <mxCell id="5TMJ9wo4u4vXd0iV7xd8-57" value="" style="line;strokeWidth=4;html=1;perimeter=backbonePerimeter;points=[];outlineConnect=0;fillColor=default;gradientColor=none;strokeColor=#B3B3B3;" vertex="1" parent="5TMJ9wo4u4vXd0iV7xd8-55">
          <mxGeometry y="58" width="160" height="10" as="geometry" />
        </mxCell>
        <mxCell id="5TMJ9wo4u4vXd0iV7xd8-58" value="&lt;font face=&quot;Times New Roman&quot; style=&quot;color: rgb(0, 51, 102); font-size: 18px;&quot;&gt;Intrusion via mail de hameÃ§onnage sur service IT&lt;/font&gt;" style="text;align=center;verticalAlign=bottom;rounded=0;spacing=0;horizontal=1;fontSize=12;labelPosition=center;verticalLabelPosition=top;spacingTop=0;spacingBottom=0;spacingLeft=0;spacingRight=0;html=1;whiteSpace=wrap;" vertex="1" parent="5TMJ9wo4u4vXd0iV7xd8-55">
          <mxGeometry x="10" y="63" width="140" as="geometry" />
        </mxCell>
        <mxCell id="5TMJ9wo4u4vXd0iV7xd8-197" value="" style="verticalLabelPosition=bottom;aspect=fixed;html=1;shape=mxgraph.salesforce.inbox;" vertex="1" parent="5TMJ9wo4u4vXd0iV7xd8-55">
          <mxGeometry x="9" y="70" width="18.67" height="14" as="geometry" />
        </mxCell>
        <mxCell id="5TMJ9wo4u4vXd0iV7xd8-61" value="" style="shape=link;html=1;rounded=0;" edge="1" parent="1">
          <mxGeometry width="100" relative="1" as="geometry">
            <mxPoint x="347.5" y="593" as="sourcePoint" />
            <mxPoint x="347.5" y="593" as="targetPoint" />
          </mxGeometry>
        </mxCell>
        <mxCell id="5TMJ9wo4u4vXd0iV7xd8-62" value="" style="shape=link;html=1;rounded=0;" edge="1" parent="1">
          <mxGeometry width="100" relative="1" as="geometry">
            <mxPoint x="347.5" y="593" as="sourcePoint" />
            <mxPoint x="347.5" y="593" as="targetPoint" />
          </mxGeometry>
        </mxCell>
        <mxCell id="5TMJ9wo4u4vXd0iV7xd8-63" value="" style="group" vertex="1" connectable="0" parent="1">
          <mxGeometry x="340" y="560" width="160" height="141" as="geometry" />
        </mxCell>
        <mxCell id="5TMJ9wo4u4vXd0iV7xd8-64" value="" style="rounded=1;whiteSpace=wrap;html=1;glass=0;strokeColor=#B3B3B3;" vertex="1" parent="5TMJ9wo4u4vXd0iV7xd8-63">
          <mxGeometry width="160" height="90" as="geometry" />
        </mxCell>
        <mxCell id="5TMJ9wo4u4vXd0iV7xd8-65" value="" style="line;strokeWidth=4;html=1;perimeter=backbonePerimeter;points=[];outlineConnect=0;fillColor=default;gradientColor=none;strokeColor=#B3B3B3;" vertex="1" parent="5TMJ9wo4u4vXd0iV7xd8-63">
          <mxGeometry y="58" width="160" height="10" as="geometry" />
        </mxCell>
        <mxCell id="5TMJ9wo4u4vXd0iV7xd8-66" value="&lt;font face=&quot;Times New Roman&quot; style=&quot;color: rgb(0, 51, 102); font-size: 18px;&quot;&gt;Intrusion via les sites dÃ©ployÃ©s sans DSI&lt;/font&gt;" style="text;align=center;verticalAlign=bottom;rounded=0;spacing=0;horizontal=1;fontSize=12;labelPosition=center;verticalLabelPosition=top;spacingTop=0;spacingBottom=0;spacingLeft=0;spacingRight=0;html=1;whiteSpace=wrap;" vertex="1" parent="5TMJ9wo4u4vXd0iV7xd8-63">
          <mxGeometry x="10" y="63" width="140" as="geometry" />
        </mxCell>
        <mxCell id="5TMJ9wo4u4vXd0iV7xd8-198" value="Page" style="html=1;whiteSpace=wrap;strokeColor=none;fillColor=#0079D6;labelPosition=center;verticalLabelPosition=middle;verticalAlign=top;align=center;fontSize=12;outlineConnect=0;spacingTop=-6;fontColor=#FFFFFF;sketch=0;shape=mxgraph.sitemap.page;" vertex="1" parent="5TMJ9wo4u4vXd0iV7xd8-63">
          <mxGeometry x="11" y="68" width="36" height="19" as="geometry" />
        </mxCell>
        <mxCell id="5TMJ9wo4u4vXd0iV7xd8-74" value="" style="shape=link;html=1;rounded=0;" edge="1" parent="1">
          <mxGeometry width="100" relative="1" as="geometry">
            <mxPoint x="347.5" y="690" as="sourcePoint" />
            <mxPoint x="347.5" y="690" as="targetPoint" />
          </mxGeometry>
        </mxCell>
        <mxCell id="5TMJ9wo4u4vXd0iV7xd8-75" value="" style="shape=link;html=1;rounded=0;" edge="1" parent="1">
          <mxGeometry width="100" relative="1" as="geometry">
            <mxPoint x="347.5" y="690" as="sourcePoint" />
            <mxPoint x="347.5" y="690" as="targetPoint" />
          </mxGeometry>
        </mxCell>
        <mxCell id="5TMJ9wo4u4vXd0iV7xd8-76" value="" style="group" vertex="1" connectable="0" parent="1">
          <mxGeometry x="340" y="660" width="160" height="170" as="geometry" />
        </mxCell>
        <mxCell id="5TMJ9wo4u4vXd0iV7xd8-77" value="" style="rounded=1;whiteSpace=wrap;html=1;glass=0;strokeColor=#B3B3B3;" vertex="1" parent="5TMJ9wo4u4vXd0iV7xd8-76">
          <mxGeometry width="160" height="90" as="geometry" />
        </mxCell>
        <mxCell id="5TMJ9wo4u4vXd0iV7xd8-78" value="" style="line;strokeWidth=4;html=1;perimeter=backbonePerimeter;points=[];outlineConnect=0;fillColor=default;gradientColor=none;strokeColor=#B3B3B3;" vertex="1" parent="5TMJ9wo4u4vXd0iV7xd8-76">
          <mxGeometry y="58" width="160" height="10" as="geometry" />
        </mxCell>
        <mxCell id="5TMJ9wo4u4vXd0iV7xd8-79" value="&lt;font face=&quot;Times New Roman&quot; style=&quot;color: rgb(0, 51, 102); font-size: 18px;&quot;&gt;Corruption d&#39;un personnel de Shawdow IT&lt;/font&gt;" style="text;align=center;verticalAlign=bottom;rounded=0;spacing=0;horizontal=1;fontSize=12;labelPosition=center;verticalLabelPosition=top;spacingTop=0;spacingBottom=0;spacingLeft=0;spacingRight=0;html=1;whiteSpace=wrap;" vertex="1" parent="5TMJ9wo4u4vXd0iV7xd8-76">
          <mxGeometry x="10" y="63" width="140" as="geometry" />
        </mxCell>
        <mxCell id="5TMJ9wo4u4vXd0iV7xd8-199" value="" style="verticalLabelPosition=bottom;verticalAlign=top;html=1;shape=mxgraph.basic.smiley" vertex="1" parent="5TMJ9wo4u4vXd0iV7xd8-76">
          <mxGeometry x="8" y="67" width="20" height="20" as="geometry" />
        </mxCell>
        <mxCell id="5TMJ9wo4u4vXd0iV7xd8-82" value="" style="shape=link;html=1;rounded=0;" edge="1" parent="1">
          <mxGeometry width="100" relative="1" as="geometry">
            <mxPoint x="347.5" y="790" as="sourcePoint" />
            <mxPoint x="347.5" y="790" as="targetPoint" />
          </mxGeometry>
        </mxCell>
        <mxCell id="5TMJ9wo4u4vXd0iV7xd8-83" value="" style="shape=link;html=1;rounded=0;" edge="1" parent="1">
          <mxGeometry width="100" relative="1" as="geometry">
            <mxPoint x="347.5" y="790" as="sourcePoint" />
            <mxPoint x="347.5" y="790" as="targetPoint" />
          </mxGeometry>
        </mxCell>
        <mxCell id="5TMJ9wo4u4vXd0iV7xd8-84" value="" style="group" vertex="1" connectable="0" parent="1">
          <mxGeometry x="340" y="760" width="160" height="119" as="geometry" />
        </mxCell>
        <mxCell id="5TMJ9wo4u4vXd0iV7xd8-85" value="" style="rounded=1;whiteSpace=wrap;html=1;glass=0;strokeColor=#B3B3B3;" vertex="1" parent="5TMJ9wo4u4vXd0iV7xd8-84">
          <mxGeometry width="160" height="90" as="geometry" />
        </mxCell>
        <mxCell id="5TMJ9wo4u4vXd0iV7xd8-86" value="" style="line;strokeWidth=4;html=1;perimeter=backbonePerimeter;points=[];outlineConnect=0;fillColor=default;gradientColor=none;strokeColor=#B3B3B3;" vertex="1" parent="5TMJ9wo4u4vXd0iV7xd8-84">
          <mxGeometry y="58" width="160" height="10" as="geometry" />
        </mxCell>
        <mxCell id="5TMJ9wo4u4vXd0iV7xd8-87" value="&lt;font face=&quot;Times New Roman&quot; style=&quot;color: rgb(0, 51, 102); font-size: 16px;&quot;&gt;Corruption d&#39;un personnel fournisseur connu de Shadow IT&lt;/font&gt;" style="text;align=center;verticalAlign=bottom;rounded=0;spacing=0;horizontal=1;fontSize=12;labelPosition=center;verticalLabelPosition=top;spacingTop=0;spacingBottom=0;spacingLeft=0;spacingRight=0;html=1;whiteSpace=wrap;" vertex="1" parent="5TMJ9wo4u4vXd0iV7xd8-84">
          <mxGeometry x="10" y="59" width="140" as="geometry" />
        </mxCell>
        <mxCell id="5TMJ9wo4u4vXd0iV7xd8-200" value="Actor" style="shape=umlActor;verticalLabelPosition=bottom;verticalAlign=top;outlineConnect=0;fontColor=none;noLabel=1;" vertex="1" parent="5TMJ9wo4u4vXd0iV7xd8-84">
          <mxGeometry x="13" y="67" width="12" height="21" as="geometry" />
        </mxCell>
        <mxCell id="5TMJ9wo4u4vXd0iV7xd8-90" value="" style="shape=link;html=1;rounded=0;" edge="1" parent="1">
          <mxGeometry width="100" relative="1" as="geometry">
            <mxPoint x="347.5" y="890" as="sourcePoint" />
            <mxPoint x="347.5" y="890" as="targetPoint" />
          </mxGeometry>
        </mxCell>
        <mxCell id="5TMJ9wo4u4vXd0iV7xd8-91" value="" style="shape=link;html=1;rounded=0;" edge="1" parent="1">
          <mxGeometry width="100" relative="1" as="geometry">
            <mxPoint x="347.5" y="890" as="sourcePoint" />
            <mxPoint x="347.5" y="890" as="targetPoint" />
          </mxGeometry>
        </mxCell>
        <mxCell id="5TMJ9wo4u4vXd0iV7xd8-92" value="" style="group" vertex="1" connectable="0" parent="1">
          <mxGeometry x="340" y="860" width="160" height="90" as="geometry" />
        </mxCell>
        <mxCell id="5TMJ9wo4u4vXd0iV7xd8-93" value="" style="rounded=1;whiteSpace=wrap;html=1;glass=0;strokeColor=#B3B3B3;" vertex="1" parent="5TMJ9wo4u4vXd0iV7xd8-92">
          <mxGeometry width="160" height="90" as="geometry" />
        </mxCell>
        <mxCell id="5TMJ9wo4u4vXd0iV7xd8-94" value="" style="line;strokeWidth=4;html=1;perimeter=backbonePerimeter;points=[];outlineConnect=0;fillColor=default;gradientColor=none;strokeColor=#B3B3B3;" vertex="1" parent="5TMJ9wo4u4vXd0iV7xd8-92">
          <mxGeometry y="58" width="160" height="10" as="geometry" />
        </mxCell>
        <mxCell id="5TMJ9wo4u4vXd0iV7xd8-95" value="&lt;font face=&quot;Times New Roman&quot; style=&quot;color: rgb(0, 51, 102); font-size: 18px;&quot;&gt;Corruption d&#39;un prestataire d&#39;entre-tien des locaux&lt;/font&gt;" style="text;align=center;verticalAlign=bottom;rounded=0;spacing=0;horizontal=1;fontSize=12;labelPosition=center;verticalLabelPosition=top;spacingTop=0;spacingBottom=0;spacingLeft=0;spacingRight=0;html=1;whiteSpace=wrap;" vertex="1" parent="5TMJ9wo4u4vXd0iV7xd8-92">
          <mxGeometry x="10" y="63" width="140" as="geometry" />
        </mxCell>
        <mxCell id="5TMJ9wo4u4vXd0iV7xd8-101" value="" style="endArrow=block;html=1;rounded=0;exitX=1;exitY=0.5;exitDx=0;exitDy=0;endFill=1;" edge="1" parent="1" source="5TMJ9wo4u4vXd0iV7xd8-19">
          <mxGeometry width="50" height="50" relative="1" as="geometry">
            <mxPoint x="190" y="230" as="sourcePoint" />
            <mxPoint x="340" y="515" as="targetPoint" />
          </mxGeometry>
        </mxCell>
        <mxCell id="5TMJ9wo4u4vXd0iV7xd8-102" value="" style="endArrow=classic;html=1;rounded=0;edgeStyle=orthogonalEdgeStyle;entryX=0;entryY=0.5;entryDx=0;entryDy=0;startArrow=block;startFill=1;" edge="1" parent="1" target="5TMJ9wo4u4vXd0iV7xd8-48">
          <mxGeometry width="50" height="50" relative="1" as="geometry">
            <mxPoint x="340" y="610" as="sourcePoint" />
            <mxPoint x="290" y="390" as="targetPoint" />
            <Array as="points">
              <mxPoint x="340" y="610" />
              <mxPoint x="280" y="610" />
              <mxPoint x="280" y="405" />
            </Array>
          </mxGeometry>
        </mxCell>
        <mxCell id="5TMJ9wo4u4vXd0iV7xd8-104" value="" style="endArrow=block;html=1;rounded=0;exitX=0.5;exitY=1;exitDx=0;exitDy=0;entryX=0;entryY=0.5;entryDx=0;entryDy=0;edgeStyle=orthogonalEdgeStyle;endFill=1;" edge="1" parent="1" source="5TMJ9wo4u4vXd0iV7xd8-19" target="5TMJ9wo4u4vXd0iV7xd8-77">
          <mxGeometry width="50" height="50" relative="1" as="geometry">
            <mxPoint x="190" y="250" as="sourcePoint" />
            <mxPoint x="240" y="200" as="targetPoint" />
          </mxGeometry>
        </mxCell>
        <mxCell id="5TMJ9wo4u4vXd0iV7xd8-106" value="" style="endArrow=block;html=1;rounded=0;exitX=0.5;exitY=1;exitDx=0;exitDy=0;entryX=0;entryY=0.5;entryDx=0;entryDy=0;edgeStyle=orthogonalEdgeStyle;endFill=1;" edge="1" parent="1" source="5TMJ9wo4u4vXd0iV7xd8-19" target="5TMJ9wo4u4vXd0iV7xd8-85">
          <mxGeometry width="50" height="50" relative="1" as="geometry">
            <mxPoint x="450" y="230" as="sourcePoint" />
            <mxPoint x="500" y="180" as="targetPoint" />
          </mxGeometry>
        </mxCell>
        <mxCell id="5TMJ9wo4u4vXd0iV7xd8-107" value="" style="endArrow=block;html=1;rounded=0;exitX=1;exitY=0.5;exitDx=0;exitDy=0;entryX=0;entryY=0.5;entryDx=0;entryDy=0;endFill=1;" edge="1" parent="1" source="5TMJ9wo4u4vXd0iV7xd8-37" target="5TMJ9wo4u4vXd0iV7xd8-93">
          <mxGeometry width="50" height="50" relative="1" as="geometry">
            <mxPoint x="890" y="820" as="sourcePoint" />
            <mxPoint x="940" y="770" as="targetPoint" />
          </mxGeometry>
        </mxCell>
        <mxCell id="5TMJ9wo4u4vXd0iV7xd8-108" value="" style="shape=link;html=1;rounded=0;" edge="1" parent="1">
          <mxGeometry width="100" relative="1" as="geometry">
            <mxPoint x="547.5" y="890" as="sourcePoint" />
            <mxPoint x="547.5" y="890" as="targetPoint" />
          </mxGeometry>
        </mxCell>
        <mxCell id="5TMJ9wo4u4vXd0iV7xd8-109" value="" style="shape=link;html=1;rounded=0;" edge="1" parent="1">
          <mxGeometry width="100" relative="1" as="geometry">
            <mxPoint x="547.5" y="890" as="sourcePoint" />
            <mxPoint x="547.5" y="890" as="targetPoint" />
          </mxGeometry>
        </mxCell>
        <mxCell id="5TMJ9wo4u4vXd0iV7xd8-110" value="" style="group" vertex="1" connectable="0" parent="1">
          <mxGeometry x="540" y="860" width="230" height="482" as="geometry" />
        </mxCell>
        <mxCell id="5TMJ9wo4u4vXd0iV7xd8-111" value="" style="rounded=1;whiteSpace=wrap;html=1;glass=0;strokeColor=#B3B3B3;" vertex="1" parent="5TMJ9wo4u4vXd0iV7xd8-110">
          <mxGeometry width="160" height="90" as="geometry" />
        </mxCell>
        <mxCell id="5TMJ9wo4u4vXd0iV7xd8-112" value="" style="line;strokeWidth=4;html=1;perimeter=backbonePerimeter;points=[];outlineConnect=0;fillColor=default;gradientColor=none;strokeColor=#B3B3B3;" vertex="1" parent="5TMJ9wo4u4vXd0iV7xd8-110">
          <mxGeometry y="58" width="160" height="10" as="geometry" />
        </mxCell>
        <mxCell id="5TMJ9wo4u4vXd0iV7xd8-113" value="&lt;font face=&quot;Times New Roman&quot; style=&quot;color: rgb(0, 51, 102); font-size: 18px;&quot;&gt;ClÃ© USB piÃ©gÃ©e connectÃ©e au centre de commande&lt;/font&gt;" style="text;align=center;verticalAlign=bottom;rounded=0;spacing=0;horizontal=1;fontSize=12;labelPosition=center;verticalLabelPosition=top;spacingTop=0;spacingBottom=0;spacingLeft=0;spacingRight=0;html=1;whiteSpace=wrap;" vertex="1" parent="5TMJ9wo4u4vXd0iV7xd8-110">
          <mxGeometry x="10" y="63" width="140" as="geometry" />
        </mxCell>
        <mxCell id="5TMJ9wo4u4vXd0iV7xd8-202" value="" style="html=1;verticalLabelPosition=bottom;labelBackgroundColor=#ffffff;verticalAlign=top;shadow=0;dashed=0;strokeWidth=1;shape=mxgraph.ios7.misc.iphone;strokeColor=#c0c0c0;" vertex="1" parent="5TMJ9wo4u4vXd0iV7xd8-110">
          <mxGeometry x="11" y="68" width="9" height="18" as="geometry" />
        </mxCell>
        <mxCell id="5TMJ9wo4u4vXd0iV7xd8-116" value="" style="endArrow=block;html=1;rounded=0;exitX=1;exitY=0.5;exitDx=0;exitDy=0;entryX=0;entryY=0.5;entryDx=0;entryDy=0;endFill=1;" edge="1" parent="1" source="5TMJ9wo4u4vXd0iV7xd8-93" target="5TMJ9wo4u4vXd0iV7xd8-111">
          <mxGeometry width="50" height="50" relative="1" as="geometry">
            <mxPoint x="360" y="1120" as="sourcePoint" />
            <mxPoint x="410" y="1070" as="targetPoint" />
          </mxGeometry>
        </mxCell>
        <mxCell id="5TMJ9wo4u4vXd0iV7xd8-118" value="" style="rounded=0;whiteSpace=wrap;html=1;fillColor=#bac8d3;strokeColor=#23445d;labelBackgroundColor=none;" vertex="1" parent="1">
          <mxGeometry x="808" y="300" width="192" height="660" as="geometry" />
        </mxCell>
        <mxCell id="5TMJ9wo4u4vXd0iV7xd8-119" value="&lt;font face=&quot;Times New Roman&quot; color=&quot;#003366&quot;&gt;&lt;span style=&quot;caret-color: rgb(0, 51, 102); font-size: 25px;&quot;&gt;TROUVER&lt;/span&gt;&lt;/font&gt;" style="text;html=1;align=center;verticalAlign=middle;whiteSpace=wrap;rounded=0;" vertex="1" parent="1">
          <mxGeometry x="837" y="310" width="140" height="30" as="geometry" />
        </mxCell>
        <mxCell id="5TMJ9wo4u4vXd0iV7xd8-120" value="" style="shape=link;html=1;rounded=0;" edge="1" parent="1">
          <mxGeometry width="100" relative="1" as="geometry">
            <mxPoint x="834.5" y="531" as="sourcePoint" />
            <mxPoint x="834.5" y="531" as="targetPoint" />
          </mxGeometry>
        </mxCell>
        <mxCell id="5TMJ9wo4u4vXd0iV7xd8-121" value="" style="shape=link;html=1;rounded=0;" edge="1" parent="1">
          <mxGeometry width="100" relative="1" as="geometry">
            <mxPoint x="834.5" y="531" as="sourcePoint" />
            <mxPoint x="834.5" y="531" as="targetPoint" />
          </mxGeometry>
        </mxCell>
        <mxCell id="5TMJ9wo4u4vXd0iV7xd8-122" value="" style="group" vertex="1" connectable="0" parent="1">
          <mxGeometry x="827" y="466" width="160" height="149" as="geometry" />
        </mxCell>
        <mxCell id="5TMJ9wo4u4vXd0iV7xd8-123" value="" style="rounded=1;whiteSpace=wrap;html=1;glass=0;strokeColor=#B3B3B3;" vertex="1" parent="5TMJ9wo4u4vXd0iV7xd8-122">
          <mxGeometry width="160" height="125.00000000000001" as="geometry" />
        </mxCell>
        <mxCell id="5TMJ9wo4u4vXd0iV7xd8-124" value="" style="line;strokeWidth=4;html=1;perimeter=backbonePerimeter;points=[];outlineConnect=0;fillColor=default;gradientColor=none;strokeColor=#B3B3B3;" vertex="1" parent="5TMJ9wo4u4vXd0iV7xd8-122">
          <mxGeometry y="80.55555555555557" width="160" height="13.888888888888891" as="geometry" />
        </mxCell>
        <mxCell id="5TMJ9wo4u4vXd0iV7xd8-125" value="&lt;font face=&quot;Times New Roman&quot; style=&quot;color: rgb(0, 51, 102); font-size: 18px;&quot;&gt;Scanner des ser-vices vulnÃ©rables des applications sans patch&lt;/font&gt;" style="text;align=center;verticalAlign=bottom;rounded=0;spacing=0;horizontal=1;fontSize=12;labelPosition=center;verticalLabelPosition=top;spacingTop=0;spacingBottom=0;spacingLeft=0;spacingRight=0;html=1;whiteSpace=wrap;" vertex="1" parent="5TMJ9wo4u4vXd0iV7xd8-122">
          <mxGeometry x="10" y="84.50000000000001" width="140" as="geometry" />
        </mxCell>
        <mxCell id="5TMJ9wo4u4vXd0iV7xd8-203" value="" style="verticalLabelPosition=bottom;aspect=fixed;html=1;shape=mxgraph.salesforce.data2;" vertex="1" parent="5TMJ9wo4u4vXd0iV7xd8-122">
          <mxGeometry x="9" y="91" width="31" height="31" as="geometry" />
        </mxCell>
        <mxCell id="5TMJ9wo4u4vXd0iV7xd8-128" value="" style="endArrow=classic;html=1;rounded=0;exitX=1;exitY=0.5;exitDx=0;exitDy=0;entryX=0;entryY=0.5;entryDx=0;entryDy=0;edgeStyle=orthogonalEdgeStyle;" edge="1" parent="1" source="5TMJ9wo4u4vXd0iV7xd8-48" target="5TMJ9wo4u4vXd0iV7xd8-123">
          <mxGeometry width="50" height="50" relative="1" as="geometry">
            <mxPoint x="700" y="140" as="sourcePoint" />
            <mxPoint x="750" y="90" as="targetPoint" />
            <Array as="points">
              <mxPoint x="710" y="405" />
              <mxPoint x="710" y="530" />
              <mxPoint x="827" y="530" />
            </Array>
          </mxGeometry>
        </mxCell>
        <mxCell id="5TMJ9wo4u4vXd0iV7xd8-129" value="" style="endArrow=classic;html=1;rounded=0;exitX=1;exitY=0.5;exitDx=0;exitDy=0;entryX=0;entryY=0.5;entryDx=0;entryDy=0;edgeStyle=orthogonalEdgeStyle;" edge="1" parent="1" source="5TMJ9wo4u4vXd0iV7xd8-56" target="5TMJ9wo4u4vXd0iV7xd8-123">
          <mxGeometry width="50" height="50" relative="1" as="geometry">
            <mxPoint x="660" y="70" as="sourcePoint" />
            <mxPoint x="710" y="20" as="targetPoint" />
            <Array as="points">
              <mxPoint x="710" y="505" />
              <mxPoint x="710" y="530" />
              <mxPoint x="827" y="530" />
            </Array>
          </mxGeometry>
        </mxCell>
        <mxCell id="5TMJ9wo4u4vXd0iV7xd8-130" value="" style="endArrow=classic;html=1;rounded=0;exitX=1;exitY=0.5;exitDx=0;exitDy=0;entryX=0;entryY=0.5;entryDx=0;entryDy=0;edgeStyle=orthogonalEdgeStyle;" edge="1" parent="1" source="5TMJ9wo4u4vXd0iV7xd8-64" target="5TMJ9wo4u4vXd0iV7xd8-123">
          <mxGeometry width="50" height="50" relative="1" as="geometry">
            <mxPoint x="600" y="150" as="sourcePoint" />
            <mxPoint x="650" y="100" as="targetPoint" />
            <Array as="points">
              <mxPoint x="710" y="605" />
              <mxPoint x="710" y="530" />
              <mxPoint x="827" y="530" />
            </Array>
          </mxGeometry>
        </mxCell>
        <mxCell id="5TMJ9wo4u4vXd0iV7xd8-131" value="" style="endArrow=classic;html=1;rounded=0;exitX=1;exitY=0.5;exitDx=0;exitDy=0;entryX=0;entryY=0.5;entryDx=0;entryDy=0;edgeStyle=orthogonalEdgeStyle;" edge="1" parent="1" source="5TMJ9wo4u4vXd0iV7xd8-77" target="5TMJ9wo4u4vXd0iV7xd8-123">
          <mxGeometry width="50" height="50" relative="1" as="geometry">
            <mxPoint x="690" y="130" as="sourcePoint" />
            <mxPoint x="740" y="80" as="targetPoint" />
            <Array as="points">
              <mxPoint x="710" y="705" />
              <mxPoint x="710" y="530" />
              <mxPoint x="827" y="530" />
            </Array>
          </mxGeometry>
        </mxCell>
        <mxCell id="5TMJ9wo4u4vXd0iV7xd8-132" value="" style="endArrow=classic;html=1;rounded=0;exitX=1;exitY=0.5;exitDx=0;exitDy=0;entryX=0;entryY=0.5;entryDx=0;entryDy=0;edgeStyle=orthogonalEdgeStyle;" edge="1" parent="1" source="5TMJ9wo4u4vXd0iV7xd8-85" target="5TMJ9wo4u4vXd0iV7xd8-123">
          <mxGeometry width="50" height="50" relative="1" as="geometry">
            <mxPoint x="620" y="130" as="sourcePoint" />
            <mxPoint x="670" y="80" as="targetPoint" />
            <Array as="points">
              <mxPoint x="710" y="805" />
              <mxPoint x="710" y="530" />
              <mxPoint x="827" y="530" />
            </Array>
          </mxGeometry>
        </mxCell>
        <mxCell id="5TMJ9wo4u4vXd0iV7xd8-133" value="" style="endArrow=block;html=1;rounded=0;exitX=1;exitY=0.5;exitDx=0;exitDy=0;entryX=0;entryY=0.5;entryDx=0;entryDy=0;edgeStyle=orthogonalEdgeStyle;endFill=1;" edge="1" parent="1" source="5TMJ9wo4u4vXd0iV7xd8-111" target="5TMJ9wo4u4vXd0iV7xd8-123">
          <mxGeometry width="50" height="50" relative="1" as="geometry">
            <mxPoint x="540" y="200" as="sourcePoint" />
            <mxPoint x="590" y="150" as="targetPoint" />
            <Array as="points">
              <mxPoint x="710" y="905" />
              <mxPoint x="710" y="530" />
              <mxPoint x="827" y="530" />
            </Array>
          </mxGeometry>
        </mxCell>
        <mxCell id="5TMJ9wo4u4vXd0iV7xd8-134" value="" style="rounded=0;whiteSpace=wrap;html=1;fillColor=#bac8d3;strokeColor=#23445d;labelBackgroundColor=none;" vertex="1" parent="1">
          <mxGeometry x="1070" y="300" width="380" height="660" as="geometry" />
        </mxCell>
        <mxCell id="5TMJ9wo4u4vXd0iV7xd8-135" value="&lt;font face=&quot;Times New Roman&quot; color=&quot;#003366&quot;&gt;&lt;span style=&quot;caret-color: rgb(0, 51, 102); font-size: 25px;&quot;&gt;EXPLOITER&lt;/span&gt;&lt;/font&gt;" style="text;html=1;align=center;verticalAlign=middle;whiteSpace=wrap;rounded=0;" vertex="1" parent="1">
          <mxGeometry x="1190" y="310" width="140" height="30" as="geometry" />
        </mxCell>
        <mxCell id="5TMJ9wo4u4vXd0iV7xd8-144" value="" style="shape=link;html=1;rounded=0;" edge="1" parent="1">
          <mxGeometry width="100" relative="1" as="geometry">
            <mxPoint x="834.5" y="891" as="sourcePoint" />
            <mxPoint x="834.5" y="891" as="targetPoint" />
          </mxGeometry>
        </mxCell>
        <mxCell id="5TMJ9wo4u4vXd0iV7xd8-145" value="" style="shape=link;html=1;rounded=0;" edge="1" parent="1">
          <mxGeometry width="100" relative="1" as="geometry">
            <mxPoint x="834.5" y="891" as="sourcePoint" />
            <mxPoint x="834.5" y="891" as="targetPoint" />
          </mxGeometry>
        </mxCell>
        <mxCell id="5TMJ9wo4u4vXd0iV7xd8-146" value="" style="group" vertex="1" connectable="0" parent="1">
          <mxGeometry x="827" y="861" width="160" height="127.8" as="geometry" />
        </mxCell>
        <mxCell id="5TMJ9wo4u4vXd0iV7xd8-147" value="" style="rounded=1;whiteSpace=wrap;html=1;glass=0;strokeColor=#B3B3B3;" vertex="1" parent="5TMJ9wo4u4vXd0iV7xd8-146">
          <mxGeometry width="160" height="90" as="geometry" />
        </mxCell>
        <mxCell id="5TMJ9wo4u4vXd0iV7xd8-148" value="" style="line;strokeWidth=4;html=1;perimeter=backbonePerimeter;points=[];outlineConnect=0;fillColor=default;gradientColor=none;strokeColor=#B3B3B3;" vertex="1" parent="5TMJ9wo4u4vXd0iV7xd8-146">
          <mxGeometry y="58" width="160" height="10" as="geometry" />
        </mxCell>
        <mxCell id="5TMJ9wo4u4vXd0iV7xd8-149" value="&lt;font face=&quot;Times New Roman&quot; style=&quot;color: rgb(0, 51, 102); font-size: 18px;&quot;&gt;LarÃ©ralisation vers rÃ©seaux OT&lt;/font&gt;" style="text;align=center;verticalAlign=bottom;rounded=0;spacing=0;horizontal=1;fontSize=12;labelPosition=center;verticalLabelPosition=top;spacingTop=0;spacingBottom=0;spacingLeft=0;spacingRight=0;html=1;whiteSpace=wrap;" vertex="1" parent="5TMJ9wo4u4vXd0iV7xd8-146">
          <mxGeometry x="10" y="54" width="140" as="geometry" />
        </mxCell>
        <mxCell id="5TMJ9wo4u4vXd0iV7xd8-204" value="" style="verticalLabelPosition=bottom;aspect=fixed;html=1;shape=mxgraph.salesforce.work_com;" vertex="1" parent="5TMJ9wo4u4vXd0iV7xd8-146">
          <mxGeometry x="11" y="67" width="21.43" height="21" as="geometry" />
        </mxCell>
        <mxCell id="5TMJ9wo4u4vXd0iV7xd8-153" value="" style="shape=link;html=1;rounded=0;" edge="1" parent="1">
          <mxGeometry width="100" relative="1" as="geometry">
            <mxPoint x="1095.5" y="514" as="sourcePoint" />
            <mxPoint x="1095.5" y="514" as="targetPoint" />
          </mxGeometry>
        </mxCell>
        <mxCell id="5TMJ9wo4u4vXd0iV7xd8-154" value="" style="shape=link;html=1;rounded=0;" edge="1" parent="1">
          <mxGeometry width="100" relative="1" as="geometry">
            <mxPoint x="1095.5" y="514" as="sourcePoint" />
            <mxPoint x="1095.5" y="514" as="targetPoint" />
          </mxGeometry>
        </mxCell>
        <mxCell id="5TMJ9wo4u4vXd0iV7xd8-155" value="" style="group" vertex="1" connectable="0" parent="1">
          <mxGeometry x="1088" y="484" width="160" height="90" as="geometry" />
        </mxCell>
        <mxCell id="5TMJ9wo4u4vXd0iV7xd8-156" value="" style="rounded=1;whiteSpace=wrap;html=1;glass=0;strokeColor=#B3B3B3;" vertex="1" parent="5TMJ9wo4u4vXd0iV7xd8-155">
          <mxGeometry width="160" height="90" as="geometry" />
        </mxCell>
        <mxCell id="5TMJ9wo4u4vXd0iV7xd8-157" value="" style="line;strokeWidth=4;html=1;perimeter=backbonePerimeter;points=[];outlineConnect=0;fillColor=default;gradientColor=none;strokeColor=#B3B3B3;" vertex="1" parent="5TMJ9wo4u4vXd0iV7xd8-155">
          <mxGeometry y="58" width="160" height="10" as="geometry" />
        </mxCell>
        <mxCell id="5TMJ9wo4u4vXd0iV7xd8-158" value="&lt;font face=&quot;Times New Roman&quot; style=&quot;color: rgb(0, 51, 102); font-size: 18px;&quot;&gt;Envoi des paquets malsifiÃ©s ModBUS /Profinet/EternetIP&lt;/font&gt;" style="text;align=center;verticalAlign=bottom;rounded=0;spacing=0;horizontal=1;fontSize=12;labelPosition=center;verticalLabelPosition=top;spacingTop=0;spacingBottom=0;spacingLeft=0;spacingRight=0;html=1;whiteSpace=wrap;" vertex="1" parent="5TMJ9wo4u4vXd0iV7xd8-155">
          <mxGeometry x="10" y="63" width="140" as="geometry" />
        </mxCell>
        <mxCell id="5TMJ9wo4u4vXd0iV7xd8-208" value="" style="html=1;verticalLabelPosition=bottom;align=center;labelBackgroundColor=#ffffff;verticalAlign=top;strokeWidth=2;strokeColor=#0080F0;shadow=0;dashed=0;shape=mxgraph.ios7.icons.shuffle;pointerEvents=1" vertex="1" parent="5TMJ9wo4u4vXd0iV7xd8-155">
          <mxGeometry x="10" y="68" width="30" height="21" as="geometry" />
        </mxCell>
        <mxCell id="5TMJ9wo4u4vXd0iV7xd8-161" value="" style="shape=link;html=1;rounded=0;" edge="1" parent="1">
          <mxGeometry width="100" relative="1" as="geometry">
            <mxPoint x="1279.5" y="644" as="sourcePoint" />
            <mxPoint x="1279.5" y="644" as="targetPoint" />
          </mxGeometry>
        </mxCell>
        <mxCell id="5TMJ9wo4u4vXd0iV7xd8-162" value="" style="shape=link;html=1;rounded=0;" edge="1" parent="1">
          <mxGeometry width="100" relative="1" as="geometry">
            <mxPoint x="1279.5" y="644" as="sourcePoint" />
            <mxPoint x="1279.5" y="644" as="targetPoint" />
          </mxGeometry>
        </mxCell>
        <mxCell id="5TMJ9wo4u4vXd0iV7xd8-163" value="" style="group" vertex="1" connectable="0" parent="1">
          <mxGeometry x="1270" y="614" width="160" height="90" as="geometry" />
        </mxCell>
        <mxCell id="5TMJ9wo4u4vXd0iV7xd8-164" value="" style="rounded=1;whiteSpace=wrap;html=1;glass=0;strokeColor=#B3B3B3;" vertex="1" parent="5TMJ9wo4u4vXd0iV7xd8-163">
          <mxGeometry width="160" height="90" as="geometry" />
        </mxCell>
        <mxCell id="5TMJ9wo4u4vXd0iV7xd8-165" value="" style="line;strokeWidth=4;html=1;perimeter=backbonePerimeter;points=[];outlineConnect=0;fillColor=default;gradientColor=none;strokeColor=#B3B3B3;" vertex="1" parent="5TMJ9wo4u4vXd0iV7xd8-163">
          <mxGeometry y="58" width="160" height="10" as="geometry" />
        </mxCell>
        <mxCell id="5TMJ9wo4u4vXd0iV7xd8-166" value="&lt;font face=&quot;Times New Roman&quot; style=&quot;color: rgb(0, 51, 102); font-size: 18px;&quot;&gt;Canal de commu-nication vers centre de commande&lt;/font&gt;" style="text;align=center;verticalAlign=bottom;rounded=0;spacing=0;horizontal=1;fontSize=12;labelPosition=center;verticalLabelPosition=top;spacingTop=0;spacingBottom=0;spacingLeft=0;spacingRight=0;html=1;whiteSpace=wrap;" vertex="1" parent="5TMJ9wo4u4vXd0iV7xd8-163">
          <mxGeometry x="10" y="63" width="140" as="geometry" />
        </mxCell>
        <mxCell id="5TMJ9wo4u4vXd0iV7xd8-210" value="" style="html=1;verticalLabelPosition=bottom;align=center;labelBackgroundColor=#ffffff;verticalAlign=top;strokeWidth=2;strokeColor=#0080F0;shadow=0;dashed=0;shape=mxgraph.ios7.icons.repeat;pointerEvents=1" vertex="1" parent="5TMJ9wo4u4vXd0iV7xd8-163">
          <mxGeometry x="10" y="66" width="30" height="24" as="geometry" />
        </mxCell>
        <mxCell id="5TMJ9wo4u4vXd0iV7xd8-170" style="edgeStyle=orthogonalEdgeStyle;rounded=0;orthogonalLoop=1;jettySize=auto;html=1;exitX=0.5;exitY=1;exitDx=0;exitDy=0;endArrow=block;endFill=1;entryX=0.5;entryY=0;entryDx=0;entryDy=0;" edge="1" parent="1" source="5TMJ9wo4u4vXd0iV7xd8-186" target="5TMJ9wo4u4vXd0iV7xd8-164">
          <mxGeometry relative="1" as="geometry">
            <mxPoint x="1168" y="704" as="targetPoint" />
            <Array as="points">
              <mxPoint x="1350" y="584" />
              <mxPoint x="1350" y="584" />
            </Array>
          </mxGeometry>
        </mxCell>
        <mxCell id="5TMJ9wo4u4vXd0iV7xd8-182" style="edgeStyle=orthogonalEdgeStyle;rounded=0;orthogonalLoop=1;jettySize=auto;html=1;exitX=0.5;exitY=1;exitDx=0;exitDy=0;entryX=0.5;entryY=0;entryDx=0;entryDy=0;endArrow=block;endFill=1;" edge="1" parent="1" source="5TMJ9wo4u4vXd0iV7xd8-164" target="5TMJ9wo4u4vXd0iV7xd8-176">
          <mxGeometry relative="1" as="geometry">
            <Array as="points">
              <mxPoint x="1350" y="740" />
              <mxPoint x="1350" y="740" />
            </Array>
          </mxGeometry>
        </mxCell>
        <mxCell id="5TMJ9wo4u4vXd0iV7xd8-183" value="" style="shape=link;html=1;rounded=0;" edge="1" parent="1">
          <mxGeometry width="100" relative="1" as="geometry">
            <mxPoint x="1277.5" y="514" as="sourcePoint" />
            <mxPoint x="1277.5" y="514" as="targetPoint" />
          </mxGeometry>
        </mxCell>
        <mxCell id="5TMJ9wo4u4vXd0iV7xd8-184" value="" style="shape=link;html=1;rounded=0;" edge="1" parent="1">
          <mxGeometry width="100" relative="1" as="geometry">
            <mxPoint x="1277.5" y="514" as="sourcePoint" />
            <mxPoint x="1277.5" y="514" as="targetPoint" />
          </mxGeometry>
        </mxCell>
        <mxCell id="5TMJ9wo4u4vXd0iV7xd8-185" value="" style="group" vertex="1" connectable="0" parent="1">
          <mxGeometry x="1270" y="484" width="160" height="95.7" as="geometry" />
        </mxCell>
        <mxCell id="5TMJ9wo4u4vXd0iV7xd8-186" value="" style="rounded=1;whiteSpace=wrap;html=1;glass=0;strokeColor=#B3B3B3;" vertex="1" parent="5TMJ9wo4u4vXd0iV7xd8-185">
          <mxGeometry width="160" height="90" as="geometry" />
        </mxCell>
        <mxCell id="5TMJ9wo4u4vXd0iV7xd8-187" value="" style="line;strokeWidth=4;html=1;perimeter=backbonePerimeter;points=[];outlineConnect=0;fillColor=default;gradientColor=none;strokeColor=#B3B3B3;" vertex="1" parent="5TMJ9wo4u4vXd0iV7xd8-185">
          <mxGeometry y="58" width="160" height="10" as="geometry" />
        </mxCell>
        <mxCell id="5TMJ9wo4u4vXd0iV7xd8-188" value="&lt;font face=&quot;Times New Roman&quot; style=&quot;color: rgb(0, 51, 102); font-size: 18px;&quot;&gt;DÃ©passement du tampon PLC&lt;/font&gt;" style="text;align=center;verticalAlign=bottom;rounded=0;spacing=0;horizontal=1;fontSize=12;labelPosition=center;verticalLabelPosition=top;spacingTop=0;spacingBottom=0;spacingLeft=0;spacingRight=0;html=1;whiteSpace=wrap;" vertex="1" parent="5TMJ9wo4u4vXd0iV7xd8-185">
          <mxGeometry x="10" y="56" width="140" as="geometry" />
        </mxCell>
        <mxCell id="5TMJ9wo4u4vXd0iV7xd8-209" value="" style="html=1;verticalLabelPosition=bottom;align=center;labelBackgroundColor=#ffffff;verticalAlign=top;strokeWidth=2;strokeColor=#0080F0;shadow=0;dashed=0;shape=mxgraph.ios7.icons.tools;pointerEvents=1" vertex="1" parent="5TMJ9wo4u4vXd0iV7xd8-185">
          <mxGeometry x="11" y="69" width="14" height="14" as="geometry" />
        </mxCell>
        <mxCell id="5TMJ9wo4u4vXd0iV7xd8-191" style="edgeStyle=orthogonalEdgeStyle;rounded=0;orthogonalLoop=1;jettySize=auto;html=1;exitX=1;exitY=0.5;exitDx=0;exitDy=0;entryX=0.5;entryY=0;entryDx=0;entryDy=0;endArrow=block;endFill=1;" edge="1" parent="1" source="5TMJ9wo4u4vXd0iV7xd8-147" target="5TMJ9wo4u4vXd0iV7xd8-186">
          <mxGeometry relative="1" as="geometry">
            <Array as="points">
              <mxPoint x="1030" y="907" />
              <mxPoint x="1030" y="410" />
              <mxPoint x="1350" y="410" />
            </Array>
          </mxGeometry>
        </mxCell>
        <mxCell id="5TMJ9wo4u4vXd0iV7xd8-192" style="edgeStyle=orthogonalEdgeStyle;rounded=0;orthogonalLoop=1;jettySize=auto;html=1;exitX=1;exitY=0.5;exitDx=0;exitDy=0;entryX=0;entryY=0.5;entryDx=0;entryDy=0;endArrow=block;endFill=1;" edge="1" parent="1" source="5TMJ9wo4u4vXd0iV7xd8-123" target="5TMJ9wo4u4vXd0iV7xd8-156">
          <mxGeometry relative="1" as="geometry" />
        </mxCell>
        <mxCell id="5TMJ9wo4u4vXd0iV7xd8-173" value="" style="shape=link;html=1;rounded=0;" edge="1" parent="1">
          <mxGeometry width="100" relative="1" as="geometry">
            <mxPoint x="1277.5" y="888" as="sourcePoint" />
            <mxPoint x="1277.5" y="888" as="targetPoint" />
          </mxGeometry>
        </mxCell>
        <mxCell id="5TMJ9wo4u4vXd0iV7xd8-174" value="" style="shape=link;html=1;rounded=0;" edge="1" parent="1">
          <mxGeometry width="100" relative="1" as="geometry">
            <mxPoint x="1277.5" y="888" as="sourcePoint" />
            <mxPoint x="1277.5" y="888" as="targetPoint" />
          </mxGeometry>
        </mxCell>
        <mxCell id="5TMJ9wo4u4vXd0iV7xd8-176" value="" style="rounded=1;whiteSpace=wrap;html=1;glass=0;strokeColor=#CC0000;fillColor=#fad9d5;" vertex="1" parent="1">
          <mxGeometry x="1270" y="810" width="160" height="138" as="geometry" />
        </mxCell>
        <mxCell id="5TMJ9wo4u4vXd0iV7xd8-177" value="" style="line;strokeWidth=4;html=1;perimeter=backbonePerimeter;points=[];outlineConnect=0;fillColor=default;gradientColor=none;strokeColor=#B3B3B3;" vertex="1" parent="1">
          <mxGeometry x="1270" y="895.3777777777777" width="160" height="16.444444444444446" as="geometry" />
        </mxCell>
        <mxCell id="5TMJ9wo4u4vXd0iV7xd8-178" value="&lt;font face=&quot;Times New Roman&quot; style=&quot;color: rgb(0, 51, 102); font-size: 18px;&quot;&gt;Sabotager action-neur PLC pour fai-re tomer le systÃ¨me de la production&lt;/font&gt;" style="text;align=center;verticalAlign=bottom;rounded=0;spacing=0;horizontal=1;fontSize=12;labelPosition=center;verticalLabelPosition=top;spacingTop=0;spacingBottom=0;spacingLeft=0;spacingRight=0;html=1;whiteSpace=wrap;" vertex="1" parent="1">
          <mxGeometry x="1282" y="898.6" width="140" as="geometry" />
        </mxCell>
        <mxCell id="5TMJ9wo4u4vXd0iV7xd8-180" value="&lt;font face=&quot;Times New Roman&quot; style=&quot;color: rgb(0, 51, 102); font-size: 18px;&quot;&gt;Ãtape finale&lt;/font&gt;" style="text;align=center;verticalAlign=bottom;rounded=0;spacing=0;horizontal=1;fontSize=12;labelPosition=center;verticalLabelPosition=top;spacingTop=0;spacingBottom=0;spacingLeft=0;spacingRight=0;html=1;whiteSpace=wrap;" vertex="1" parent="1">
          <mxGeometry x="1283" y="934" width="140" as="geometry" />
        </mxCell>
        <mxCell id="5TMJ9wo4u4vXd0iV7xd8-195" style="edgeStyle=orthogonalEdgeStyle;rounded=0;orthogonalLoop=1;jettySize=auto;html=1;exitX=1;exitY=0.5;exitDx=0;exitDy=0;entryX=0;entryY=0.5;entryDx=0;entryDy=0;" edge="1" parent="1" source="5TMJ9wo4u4vXd0iV7xd8-111" target="5TMJ9wo4u4vXd0iV7xd8-147">
          <mxGeometry relative="1" as="geometry" />
        </mxCell>
        <mxCell id="5TMJ9wo4u4vXd0iV7xd8-201" value="Actor" style="shape=umlActor;verticalLabelPosition=bottom;verticalAlign=top;outlineConnect=0;fontColor=none;noLabel=1;" vertex="1" parent="1">
          <mxGeometry x="353" y="928" width="12" height="21" as="geometry" />
        </mxCell>
        <mxCell id="5TMJ9wo4u4vXd0iV7xd8-207" style="edgeStyle=orthogonalEdgeStyle;rounded=0;orthogonalLoop=1;jettySize=auto;html=1;exitX=0.5;exitY=1;exitDx=0;exitDy=0;entryX=0;entryY=0.5;entryDx=0;entryDy=0;endArrow=block;endFill=1;" edge="1" parent="1" source="5TMJ9wo4u4vXd0iV7xd8-156" target="5TMJ9wo4u4vXd0iV7xd8-176">
          <mxGeometry relative="1" as="geometry">
            <Array as="points">
              <mxPoint x="1168" y="879" />
            </Array>
          </mxGeometry>
        </mxCell>
      </root>
    </mxGraphModel>
  </diagram>
</mxfile>
